# xmcd CD database file
#
# Track frame offsets:
#	150
#	28810
#	51980
#	76990
#	103075
#	125017
#	140250
#	162755
#	188630
#	214445
#	245822
#	272600
#
# Disc length: 4073 seconds
#
# Revision: 0
# Processed by: cddbd v1.5PL3 Copyright (c) Steve Scherf et al.
# Submitted via: CDex 1.51
#
DISCID=b00fe70c
DTITLE=Kenny Drew - Talkin' and Walkin' Plus
DYEAR=1900
DGENRE=Jazz
TTITLE0=Talkin'-Walkin'
TTITLE1=In The Prescribed Manner
TTITLE2=Prelude To A Kiss
TTITLE3=Wee-Dot
TTITLE4=Hidden Channel
TTITLE5=Deadline
TTITLE6=I'm Old Fashioned
TTITLE7=Minor Blues
TTITLE8=Walkin'-Talkin'
TTITLE9=It's Only A Paper Moon
TTITLE10=Leroy's Blues
TTITLE11=Contour
EXTD=
EXTT0=
EXTT1=
EXTT2=
EXTT3=
EXTT4=
EXTT5=
EXTT6=
EXTT7=
EXTT8=
EXTT9=
EXTT10=
EXTT11=
PLAYORDER=
